<mxfile host="Electron" agent="Mozilla/5.0 (Macintosh; Intel Mac OS X 10_15_7) AppleWebKit/537.36 (KHTML, like Gecko) draw.io/24.7.8 Chrome/128.0.6613.36 Electron/32.0.1 Safari/537.36" version="24.7.8">
  <diagram name="Page-1" id="-H_mtQnk-PTXWXPvYvuk">
    <mxGraphModel dx="984" dy="670" grid="1" gridSize="10" guides="1" tooltips="1" connect="1" arrows="1" fold="1" page="1" pageScale="1" pageWidth="1169" pageHeight="827" math="0" shadow="0">
      <root>
        <mxCell id="0" />
        <mxCell id="1" parent="0" />
        <mxCell id="djKfjqGIl_k13WJXDvjV-12" value="&amp;nbsp; &amp;nbsp; &amp;nbsp; &amp;nbsp; &amp;nbsp; &amp;nbsp; &amp;nbsp; &amp;nbsp; &amp;nbsp; &amp;nbsp; &amp;nbsp; &amp;nbsp; &amp;nbsp; &amp;nbsp; &amp;nbsp; &amp;nbsp; &amp;nbsp; &amp;nbsp; &amp;nbsp; &amp;nbsp;replicaSet: shard2" style="whiteSpace=wrap;html=1;aspect=fixed;fillColor=none;dashed=1;dashPattern=1 1;" vertex="1" parent="1">
          <mxGeometry x="660" y="380" width="260" height="260" as="geometry" />
        </mxCell>
        <mxCell id="djKfjqGIl_k13WJXDvjV-11" value="&amp;nbsp; &amp;nbsp; &amp;nbsp; &amp;nbsp; &amp;nbsp; &amp;nbsp; &amp;nbsp; &amp;nbsp; &amp;nbsp; &amp;nbsp; &amp;nbsp; &amp;nbsp; &amp;nbsp; &amp;nbsp; &amp;nbsp; &amp;nbsp; &amp;nbsp; &amp;nbsp; &amp;nbsp; replicaSet: shard1" style="whiteSpace=wrap;html=1;aspect=fixed;fillColor=none;dashed=1;dashPattern=1 1;" vertex="1" parent="1">
          <mxGeometry x="660" width="260" height="260" as="geometry" />
        </mxCell>
        <mxCell id="djKfjqGIl_k13WJXDvjV-14" value="" style="edgeStyle=orthogonalEdgeStyle;rounded=0;orthogonalLoop=1;jettySize=auto;html=1;" edge="1" parent="1" source="zA23MoTUsTF4_91t8viU-2" target="djKfjqGIl_k13WJXDvjV-13">
          <mxGeometry relative="1" as="geometry" />
        </mxCell>
        <mxCell id="djKfjqGIl_k13WJXDvjV-16" value="" style="rounded=0;orthogonalLoop=1;jettySize=auto;html=1;" edge="1" parent="1" source="zA23MoTUsTF4_91t8viU-2" target="djKfjqGIl_k13WJXDvjV-15">
          <mxGeometry relative="1" as="geometry" />
        </mxCell>
        <mxCell id="djKfjqGIl_k13WJXDvjV-18" value="" style="edgeStyle=orthogonalEdgeStyle;rounded=0;orthogonalLoop=1;jettySize=auto;html=1;" edge="1" parent="1" source="zA23MoTUsTF4_91t8viU-2" target="djKfjqGIl_k13WJXDvjV-17">
          <mxGeometry relative="1" as="geometry" />
        </mxCell>
        <mxCell id="zA23MoTUsTF4_91t8viU-2" value="MongoDB&lt;br&gt;shard1-replica1" style="shape=cylinder3;whiteSpace=wrap;html=1;boundedLbl=1;backgroundOutline=1;size=15;" parent="1" vertex="1">
          <mxGeometry x="680" y="150" width="90" height="90" as="geometry" />
        </mxCell>
        <mxCell id="zA23MoTUsTF4_91t8viU-3" value="pymongo-api" style="rounded=1;whiteSpace=wrap;html=1;" parent="1" vertex="1">
          <mxGeometry x="360" y="290" width="120" height="60" as="geometry" />
        </mxCell>
        <mxCell id="zA23MoTUsTF4_91t8viU-4" style="edgeStyle=orthogonalEdgeStyle;rounded=0;orthogonalLoop=1;jettySize=auto;html=1;exitX=1;exitY=0.5;exitDx=0;exitDy=0;" parent="1" source="zA23MoTUsTF4_91t8viU-3" target="djKfjqGIl_k13WJXDvjV-2" edge="1">
          <mxGeometry relative="1" as="geometry" />
        </mxCell>
        <mxCell id="djKfjqGIl_k13WJXDvjV-5" value="" style="rounded=0;orthogonalLoop=1;jettySize=auto;html=1;" edge="1" parent="1" source="djKfjqGIl_k13WJXDvjV-2" target="zA23MoTUsTF4_91t8viU-2">
          <mxGeometry relative="1" as="geometry">
            <mxPoint x="600" y="210" as="targetPoint" />
          </mxGeometry>
        </mxCell>
        <mxCell id="djKfjqGIl_k13WJXDvjV-7" value="" style="rounded=0;orthogonalLoop=1;jettySize=auto;html=1;" edge="1" parent="1" source="djKfjqGIl_k13WJXDvjV-2" target="djKfjqGIl_k13WJXDvjV-3">
          <mxGeometry relative="1" as="geometry">
            <mxPoint x="600" y="430" as="targetPoint" />
          </mxGeometry>
        </mxCell>
        <mxCell id="djKfjqGIl_k13WJXDvjV-10" value="" style="edgeStyle=orthogonalEdgeStyle;rounded=0;orthogonalLoop=1;jettySize=auto;html=1;dashed=1;" edge="1" parent="1" source="djKfjqGIl_k13WJXDvjV-2" target="djKfjqGIl_k13WJXDvjV-8">
          <mxGeometry relative="1" as="geometry">
            <mxPoint x="680" y="320" as="targetPoint" />
          </mxGeometry>
        </mxCell>
        <mxCell id="djKfjqGIl_k13WJXDvjV-2" value="&lt;span style=&quot;color: rgb(0, 0, 0); text-wrap: wrap;&quot;&gt;MongoDB&lt;/span&gt;&lt;br style=&quot;color: rgb(0, 0, 0); text-wrap: wrap;&quot;&gt;&lt;span style=&quot;color: rgb(0, 0, 0); text-wrap: wrap;&quot;&gt;mongo_&lt;/span&gt;router" style="sketch=0;outlineConnect=0;fontColor=#232F3E;gradientColor=none;strokeColor=#232F3E;fillColor=#ffffff;dashed=0;verticalLabelPosition=bottom;verticalAlign=top;align=center;html=1;fontSize=12;fontStyle=0;aspect=fixed;shape=mxgraph.aws4.resourceIcon;resIcon=mxgraph.aws4.router;" vertex="1" parent="1">
          <mxGeometry x="570" y="290" width="60" height="60" as="geometry" />
        </mxCell>
        <mxCell id="djKfjqGIl_k13WJXDvjV-21" value="" style="edgeStyle=orthogonalEdgeStyle;rounded=0;orthogonalLoop=1;jettySize=auto;html=1;" edge="1" parent="1" source="djKfjqGIl_k13WJXDvjV-3" target="djKfjqGIl_k13WJXDvjV-20">
          <mxGeometry relative="1" as="geometry" />
        </mxCell>
        <mxCell id="djKfjqGIl_k13WJXDvjV-22" value="" style="edgeStyle=orthogonalEdgeStyle;rounded=0;orthogonalLoop=1;jettySize=auto;html=1;" edge="1" parent="1" source="djKfjqGIl_k13WJXDvjV-3" target="djKfjqGIl_k13WJXDvjV-20">
          <mxGeometry relative="1" as="geometry" />
        </mxCell>
        <mxCell id="djKfjqGIl_k13WJXDvjV-27" value="" style="edgeStyle=orthogonalEdgeStyle;rounded=0;orthogonalLoop=1;jettySize=auto;html=1;" edge="1" parent="1" source="djKfjqGIl_k13WJXDvjV-3" target="djKfjqGIl_k13WJXDvjV-26">
          <mxGeometry relative="1" as="geometry" />
        </mxCell>
        <mxCell id="djKfjqGIl_k13WJXDvjV-29" value="" style="rounded=0;orthogonalLoop=1;jettySize=auto;html=1;" edge="1" parent="1" source="djKfjqGIl_k13WJXDvjV-3" target="djKfjqGIl_k13WJXDvjV-23">
          <mxGeometry relative="1" as="geometry">
            <mxPoint x="990" y="465" as="targetPoint" />
          </mxGeometry>
        </mxCell>
        <mxCell id="djKfjqGIl_k13WJXDvjV-3" value="MongoDB&lt;br&gt;shard2-replica1" style="shape=cylinder3;whiteSpace=wrap;html=1;boundedLbl=1;backgroundOutline=1;size=15;" vertex="1" parent="1">
          <mxGeometry x="680" y="400" width="90" height="90" as="geometry" />
        </mxCell>
        <mxCell id="djKfjqGIl_k13WJXDvjV-8" value="MongoDB&lt;br&gt;configSrv" style="shape=cylinder3;whiteSpace=wrap;html=1;boundedLbl=1;backgroundOutline=1;size=15;" vertex="1" parent="1">
          <mxGeometry x="810" y="275" width="90" height="90" as="geometry" />
        </mxCell>
        <mxCell id="djKfjqGIl_k13WJXDvjV-13" value="MongoDB&lt;br&gt;shard1-replica1" style="shape=cylinder3;whiteSpace=wrap;html=1;boundedLbl=1;backgroundOutline=1;size=15;" vertex="1" parent="1">
          <mxGeometry x="680" y="10" width="90" height="90" as="geometry" />
        </mxCell>
        <mxCell id="djKfjqGIl_k13WJXDvjV-15" value="MongoDB&lt;br&gt;shard1-replica2" style="shape=cylinder3;whiteSpace=wrap;html=1;boundedLbl=1;backgroundOutline=1;size=15;" vertex="1" parent="1">
          <mxGeometry x="810" y="10" width="90" height="90" as="geometry" />
        </mxCell>
        <mxCell id="djKfjqGIl_k13WJXDvjV-19" value="" style="edgeStyle=orthogonalEdgeStyle;rounded=0;orthogonalLoop=1;jettySize=auto;html=1;curved=1;" edge="1" parent="1" source="zA23MoTUsTF4_91t8viU-2" target="djKfjqGIl_k13WJXDvjV-17">
          <mxGeometry relative="1" as="geometry">
            <mxPoint x="770" y="195" as="sourcePoint" />
            <mxPoint x="855" y="100" as="targetPoint" />
          </mxGeometry>
        </mxCell>
        <mxCell id="djKfjqGIl_k13WJXDvjV-17" value="MongoDB&lt;br&gt;shard1-replica3" style="shape=cylinder3;whiteSpace=wrap;html=1;boundedLbl=1;backgroundOutline=1;size=15;" vertex="1" parent="1">
          <mxGeometry x="810" y="150" width="90" height="90" as="geometry" />
        </mxCell>
        <mxCell id="djKfjqGIl_k13WJXDvjV-20" value="MongoDB&lt;br&gt;shard2-replica1" style="shape=cylinder3;whiteSpace=wrap;html=1;boundedLbl=1;backgroundOutline=1;size=15;" vertex="1" parent="1">
          <mxGeometry x="810" y="400" width="90" height="90" as="geometry" />
        </mxCell>
        <mxCell id="djKfjqGIl_k13WJXDvjV-23" value="MongoDB&lt;br&gt;shard2-replica2" style="shape=cylinder3;whiteSpace=wrap;html=1;boundedLbl=1;backgroundOutline=1;size=15;" vertex="1" parent="1">
          <mxGeometry x="810" y="530" width="90" height="90" as="geometry" />
        </mxCell>
        <mxCell id="djKfjqGIl_k13WJXDvjV-26" value="MongoDB&lt;br&gt;shard2-replica3" style="shape=cylinder3;whiteSpace=wrap;html=1;boundedLbl=1;backgroundOutline=1;size=15;" vertex="1" parent="1">
          <mxGeometry x="680" y="530" width="90" height="90" as="geometry" />
        </mxCell>
      </root>
    </mxGraphModel>
  </diagram>
</mxfile>
